<svg id="Capa_1" data-name="Capa 1" xmlns="http://www.w3.org/2000/svg" viewBox="0 0 56.69 56.69"><defs><style>.cls-1{fill:#878787;}.cls-2{fill:#fff;}</style></defs><title>instagram</title><circle class="cls-1" cx="28.35" cy="28.35" r="28.35"/><path class="cls-2" d="M42.6,27c4.77,0,5.33,0,7.22.11a10,10,0,0,1,3.31.61,6,6,0,0,1,3.39,3.39,10,10,0,0,1,.61,3.31c.09,1.89.11,2.45.11,7.22s0,5.33-.11,7.21a10,10,0,0,1-.61,3.31,6,6,0,0,1-3.39,3.39,9.76,9.76,0,0,1-3.31.61c-1.89.09-2.45.11-7.22.11s-5.33,0-7.21-.11a9.76,9.76,0,0,1-3.31-.61,6,6,0,0,1-3.39-3.39,10,10,0,0,1-.61-3.31C28,47,28,46.4,28,41.64s0-5.33.11-7.22a10,10,0,0,1,.61-3.31,6,6,0,0,1,3.39-3.39,10,10,0,0,1,3.31-.61C37.27,27,37.84,27,42.6,27m0-3.21c-4.84,0-5.45,0-7.36.11a12.77,12.77,0,0,0-4.33.83,8.68,8.68,0,0,0-3.16,2.05A8.88,8.88,0,0,0,25.69,30a13.17,13.17,0,0,0-.83,4.33c-.08,1.9-.1,2.51-.1,7.36s0,5.45.1,7.36a13.28,13.28,0,0,0,.83,4.33,9.15,9.15,0,0,0,5.22,5.22,13.28,13.28,0,0,0,4.33.83c1.91.08,2.52.1,7.36.1s5.46,0,7.36-.1a13.17,13.17,0,0,0,4.33-.83,8.88,8.88,0,0,0,3.17-2.06,8.68,8.68,0,0,0,2-3.16A12.77,12.77,0,0,0,60.34,49c.09-1.91.11-2.52.11-7.36s0-5.46-.11-7.36A12.67,12.67,0,0,0,59.51,30a9,9,0,0,0-5.22-5.22A12.67,12.67,0,0,0,50,23.9c-1.9-.09-2.51-.11-7.36-.11Z" transform="translate(-14.26 -13.29)"/><path class="cls-2" d="M42.6,32.47a9.17,9.17,0,1,0,9.17,9.17A9.16,9.16,0,0,0,42.6,32.47Zm0,15.12a6,6,0,1,1,5.95-6A6,6,0,0,1,42.6,47.59Z" transform="translate(-14.26 -13.29)"/><circle class="cls-2" cx="37.87" cy="18.82" r="2.14"/></svg>