<svg id="Capa_1" data-name="Capa 1" xmlns="http://www.w3.org/2000/svg" viewBox="0 0 56.69 56.69"><defs><style>.cls-1{fill:#878787;}.cls-2{fill:#fff;}</style></defs><title>mail</title><circle class="cls-1" cx="28.35" cy="28.35" r="28.35"/><path class="cls-2" d="M54.33,55.32H25.25a5,5,0,0,1-4.95-4.94v-18a5,5,0,0,1,4.95-4.95H54.33a5,5,0,0,1,4.94,4.95v18A4.94,4.94,0,0,1,54.33,55.32ZM25.25,30.18A2.23,2.23,0,0,0,23,32.4v18a2.22,2.22,0,0,0,2.22,2.21H54.33a2.21,2.21,0,0,0,2.21-2.21v-18a2.22,2.22,0,0,0-2.21-2.22Z" transform="translate(-11.44 -12.5)"/><polygon class="cls-2" points="28.35 33.42 10.53 18.18 12.31 16.1 28.35 29.83 44.38 16.11 46.16 18.18 28.35 33.42"/><rect class="cls-2" x="49.55" y="37.42" width="2.73" height="17.78" transform="translate(-29.32 31.92) rotate(-40.72)"/><rect class="cls-2" x="19.77" y="44.94" width="17.78" height="2.73" transform="translate(-36.57 25.32) rotate(-49.28)"/></svg>