<svg id="Capa_1" data-name="Capa 1" xmlns="http://www.w3.org/2000/svg" viewBox="0 0 56.69 56.69"><defs><style>.cls-1{fill:#878787;}.cls-2{fill:#fff;fill-rule:evenodd;}</style></defs><title>whatsapp</title><circle class="cls-1" cx="28.35" cy="28.35" r="28.35"/><g id="WA_Logo" data-name="WA Logo"><path class="cls-2" d="M56.27,25.65A18,18,0,0,0,28,47.34l-2.55,9.32L35,54.16a18,18,0,0,0,8.6,2.18h0A18,18,0,0,0,56.27,25.65ZM43.55,53.31h0a14.87,14.87,0,0,1-7.61-2.09l-.55-.32-5.65,1.48,1.51-5.51-.36-.56a14.95,14.95,0,1,1,12.66,7Zm8.2-11.19c-.45-.23-2.66-1.31-3.07-1.46s-.71-.23-1,.22-1.16,1.46-1.42,1.76-.53.34-1,.11a12.34,12.34,0,0,1-3.61-2.23,13.62,13.62,0,0,1-2.5-3.11c-.26-.45,0-.69.2-.91s.45-.53.67-.79a2.88,2.88,0,0,0,.45-.75.81.81,0,0,0,0-.79c-.11-.22-1-2.43-1.38-3.33s-.74-.76-1-.77-.56,0-.86,0a1.65,1.65,0,0,0-1.2.56,5.06,5.06,0,0,0-1.57,3.75A8.8,8.8,0,0,0,36.25,39c.23.3,3.17,4.83,7.68,6.78,1.07.46,1.91.74,2.56,1a6.11,6.11,0,0,0,2.83.17c.86-.13,2.66-1.08,3-2.13a3.64,3.64,0,0,0,.26-2.14C52.5,42.45,52.2,42.34,51.75,42.12Z" transform="translate(-14.29 -10.59)"/></g></svg>